<?xml version="1.0" standalone="no"?>
<!DOCTYPE svg PUBLIC "-//W3C//DTD SVG 20010904//EN"
 "http://www.w3.org/TR/2001/REC-SVG-20010904/DTD/svg10.dtd">
<svg version="1.0" xmlns="http://www.w3.org/2000/svg"
 width="445.000000pt" height="408.000000pt" viewBox="0 0 445.000000 408.000000"
 preserveAspectRatio="xMidYMid meet">

<g transform="translate(0.000000,408.000000) scale(0.100000,-0.100000)"
fill="#000000" stroke="none">
<path d="M570 3602 c-59 -32 -71 -59 -114 -259 l-41 -188 -145 -5 c-115 -5
-151 -9 -175 -24 -102 -60 -106 -207 -8 -267 32 -20 54 -24 146 -28 118 -4
116 -2 98 -71 -5 -19 -12 -47 -15 -62 -6 -26 -7 -26 -105 -30 -117 -4 -142
-17 -179 -91 -29 -57 -23 -112 15 -158 36 -43 74 -59 138 -59 37 0 55 -4 55
-12 0 -11 -8 -49 -25 -124 -4 -17 -15 -23 -52 -29 -61 -9 -93 -28 -123 -72
-49 -72 -23 -175 55 -217 22 -11 42 -22 44 -23 2 -1 -27 -144 -64 -317 -72
-334 -74 -360 -33 -411 43 -55 85 -65 276 -65 l172 0 0 -72 c0 -151 57 -291
158 -390 115 -114 242 -168 391 -168 306 0 551 243 551 546 l0 84 638 0 639 0
1 -88 c1 -103 25 -190 77 -277 149 -248 471 -337 730 -202 84 44 194 155 233
237 39 79 65 195 60 273 l-3 57 95 0 c71 0 105 5 136 19 77 35 75 31 164 559
44 265 80 503 80 529 0 30 -7 60 -20 80 -11 18 -164 213 -340 433 -208 260
-331 405 -352 417 -29 15 -65 16 -320 14 -236 -2 -288 0 -288 11 0 7 13 74 30
148 16 74 30 151 30 171 0 41 -30 91 -73 123 l-28 21 -1237 3 c-1190 2 -1238
1 -1272 -16z m2250 -310 c0 -11 -12 -70 -26 -133 -15 -63 -106 -483 -203 -934
l-176 -820 -488 -3 -488 -2 -50 40 c-59 46 -156 95 -219 109 -64 15 -206 13
-266 -3 -67 -18 -147 -58 -209 -106 l-51 -39 -137 1 c-91 1 -137 5 -137 12 0
6 21 113 47 238 l47 227 592 3 c583 3 593 3 621 24 54 40 75 83 71 142 -5 60
-28 97 -79 127 -33 19 -55 20 -587 23 l-552 3 6 24 c3 13 11 48 18 77 l11 53
625 5 c605 5 626 6 652 25 45 34 71 90 65 142 -5 51 -29 88 -77 121 l-33 22
-584 0 c-552 0 -584 1 -579 18 3 9 10 45 17 80 l12 62 626 0 c427 0 639 4 666
11 55 16 102 68 111 124 8 59 -26 131 -76 160 -34 19 -54 20 -648 23 -485 2
-613 5 -609 15 2 7 10 39 17 72 7 33 14 63 17 68 2 4 465 7 1029 7 989 0 1024
-1 1024 -18z m1019 -786 c142 -178 264 -332 270 -342 9 -15 -2 -101 -51 -389
l-63 -370 -91 -3 -91 -3 -49 39 c-104 83 -216 122 -349 122 -133 0 -259 -45
-354 -126 l-39 -34 -136 0 c-118 0 -136 2 -136 16 0 15 185 892 196 927 5 15
24 17 217 17 182 0 217 3 247 18 80 40 106 149 54 226 -40 59 -68 66 -269 66
-195 0 -185 -4 -166 70 5 19 12 47 15 63 l6 27 265 0 265 0 259 -324z m-2691
-1285 c50 -26 105 -89 120 -140 34 -111 -17 -228 -123 -284 -56 -30 -155 -29
-212 1 -86 45 -142 153 -127 248 7 49 54 126 95 156 69 51 169 59 247 19z
m2339 14 c59 -18 127 -78 150 -133 55 -132 -30 -291 -172 -323 -106 -24 -220
35 -266 136 -24 52 -24 138 0 190 37 80 129 142 212 144 14 1 48 -6 76 -14z"/>
</g>
</svg>
